<?xml version="1.0" encoding="utf-8"?>
<!-- Svg Vector Icons : http://www.onlinewebfonts.com/icon -->
<!DOCTYPE svg PUBLIC "-//W3C//DTD SVG 1.1//EN" "http://www.w3.org/Graphics/SVG/1.1/DTD/svg11.dtd">
<svg version="1.1" xmlns="http://www.w3.org/2000/svg" xmlns:xlink="http://www.w3.org/1999/xlink" x="0px" y="0px" viewBox="0 0 1000 1000" enable-background="new 0 0 1000 1000" xml:space="preserve">
<metadata> Svg Vector Icons : http://www.onlinewebfonts.com/icon </metadata>
<g><path d="M823.8,645.3c-14.9,203-171.8,357-350.5,343.9c-178.7-13.1-311.5-188.3-296.7-391.3c14.7-200.8,130.4-431,415.5-587.9c-12.4,30.9-23.1,62.1-31.3,89.6c-31.5,105.6,1.1,160.3,35.4,238.7c34.5,24.9,32.5-39.9,42.9-118.5C705.4,396.5,834.9,494.2,823.8,645.3z M477.5,592.1c-19.6,131-131.1,158.4-137.1,239.5C334.5,912.7,394,983.2,473.4,989c79.3,5.8,148.5-55.2,154.4-136.3C633.8,771.5,596.3,672.1,477.5,592.1z"/></g>
</svg>